# xmcd
#
# Track frame offsets:
#	150
#	12138
#	24181
#	42122
#	54634
#	74834
#	78729
#	97733
#	107704
#	120284
#	132870
#	146427
#	156121
#	164943
#	177082
#	188761
#	201791
#	212761
#	227588
#	237129
#
# Disc length: 3294 seconds
#
# Revision: 0
# Processed by: cddbd v1.5.2PL0 Copyright (c) Steve Scherf et al.
# Submitted via: audiograbber 1.83.01
#
DISCID=090cdc14
DTITLE=Various Artist - Western-Hits Vol. 11 [CD 1)
DYEAR=1999
DGENRE=Country
TTITLE0=Hank Locklin - Queen Of Heart [mono]
TTITLE1=Billie Jo Spears - Look What They've Done With My Song
TTITLE2=Rick Nelson - Garden Party
TTITLE3=Johnny Paycheck - Georgia In A Jug [mono]
TTITLE4=Gram Parsons with Emmylou Harris - Love Hurts
TTITLE5=Charly Pride - San Antone
TTITLE6=Dave Travis - Sweet Country Music
TTITLE7=Buck Owens - Rhythm And Booze [mono]
TTITLE8=Frankie Laine - Moonlight Gambler
TTITLE9=Kitty Wells - Making Believe
TTITLE10=Freddy Fender - Baby I Want To Love You
TTITLE11=Dave Dudley - Cowboy Boots [mono]
TTITLE12=Sandy Posey - Born A Woman
TTITLE13=Loretta Lynn - Blue Kentucky Girl
TTITLE14=Don David jr. - Country Kings
TTITLE15=Donna Fargo - Daddy [mono]
TTITLE16=Carl Perkins - Dixie Friend [mono]
TTITLE17=Billie Jo Spears - Crystal Chandeliers
TTITLE18=Ned Miller - From A Jack To A King [mono]
TTITLE19=Barbara Mandrell - Kaw-Liga [mono]
EXTD=
EXTT0=
EXTT1=
EXTT2=
EXTT3=
EXTT4=
EXTT5=
EXTT6=
EXTT7=
EXTT8=
EXTT9=
EXTT10=
EXTT11=
EXTT12=
EXTT13=
EXTT14=
EXTT15=
EXTT16=
EXTT17=
EXTT18=
EXTT19=
PLAYORDER=
